<svg width="24" height="25" viewBox="0 0 24 25" fill="none" xmlns="http://www.w3.org/2000/svg">
<path d="M7.7757 2.75726C8.53559 2.75726 9.15301 2.13984 9.15301 1.37995C9.15301 0.620053 8.53559 0 7.7757 0C7.01581 0 6.39575 0.617414 6.39575 1.37995C6.39575 2.1372 7.01317 2.75726 7.7757 2.75726ZM7.7757 1.00264C7.98414 1.00264 8.15037 1.1715 8.15037 1.37995C8.15037 1.58839 7.9815 1.75462 7.7757 1.75462C7.56989 1.75462 7.39839 1.58575 7.39839 1.37731C7.39839 1.16887 7.56726 1.00264 7.7757 1.00264Z" fill="white"/>
<path d="M6.94726 17.314C6.18736 17.314 5.56995 17.9314 5.56995 18.6939C5.56995 19.4564 6.18736 20.0739 6.94726 20.0739C7.70715 20.0739 8.3272 19.4564 8.3272 18.6939C8.3272 17.9314 7.70715 17.314 6.94726 17.314ZM6.94726 19.0686C6.73881 19.0686 6.57259 18.8997 6.57259 18.6913C6.57259 18.4828 6.74145 18.314 6.94726 18.314C7.15306 18.314 7.32456 18.4828 7.32456 18.6913C7.32456 18.8997 7.1557 19.0686 6.94726 19.0686Z" fill="white"/>
<path d="M11.7336 2.68599C12.0804 2.68599 12.3615 2.40484 12.3615 2.05802C12.3615 1.7112 12.0804 1.43005 11.7336 1.43005C11.3867 1.43005 11.1056 1.7112 11.1056 2.05802C11.1056 2.40484 11.3867 2.68599 11.7336 2.68599Z" fill="white"/>
<path d="M17.8865 24.6728C18.2333 24.6728 18.5145 24.3917 18.5145 24.0448C18.5145 23.698 18.2333 23.4169 17.8865 23.4169C17.5397 23.4169 17.2585 23.698 17.2585 24.0448C17.2585 24.3917 17.5397 24.6728 17.8865 24.6728Z" fill="white"/>
<path d="M23.4986 22.4855H22.7467V21.7335C22.7467 21.4565 22.5224 21.2322 22.2453 21.2322C21.9683 21.2322 21.744 21.4565 21.744 21.7335V22.4855H20.992C20.715 22.4855 20.4907 22.7098 20.4907 22.9868C20.4907 23.2638 20.715 23.4881 20.992 23.4881H21.744V24.2401C21.744 24.5171 21.9683 24.7414 22.2453 24.7414C22.5224 24.7414 22.7467 24.5171 22.7467 24.2401V23.4881H23.4986C23.7757 23.4881 24 23.2638 24 22.9868C24 22.7098 23.7757 22.4855 23.4986 22.4855Z" fill="white"/>
<path d="M1.2533 2.95516V3.70713C1.2533 3.98418 1.47757 4.20845 1.75462 4.20845C2.03166 4.20845 2.25594 3.98418 2.25594 3.70713V2.95516H3.00792C3.28496 2.95516 3.50923 2.73088 3.50923 2.45384C3.50923 2.17679 3.28496 1.95252 3.00792 1.95252H2.25594V1.20054C2.25594 0.923493 2.03166 0.699219 1.75462 0.699219C1.47757 0.699219 1.2533 0.923493 1.2533 1.20054V1.95252H0.501319C0.224274 1.95252 0 2.17679 0 2.45384C0 2.73088 0.224274 2.95516 0.501319 2.95516H1.2533Z" fill="white"/>
<path d="M23.5699 16.1214L19.554 1.73614C19.4221 1.26648 19.0844 0.897087 18.6279 0.722945C18.1715 0.548802 17.6728 0.604211 17.2638 0.868064L13.335 3.41688C13.0026 3.63323 12.6147 3.73878 12.219 3.72822L6.9208 3.56727C6.31922 3.5488 5.73346 3.71239 5.22687 4.03957L1.14244 6.68864C0.356156 7.19788 -0.00268278 8.14775 0.250615 9.05012L4.26908 23.4353C4.40101 23.905 4.73874 24.2744 5.19521 24.4485C5.37199 24.5145 5.55405 24.5488 5.7361 24.5488C6.0237 24.5488 6.30866 24.467 6.55932 24.3034L10.4854 21.7572C10.8179 21.5409 11.2058 21.438 11.6015 21.4459L16.8997 21.6069C17.5013 21.628 18.087 21.4617 18.5936 21.1346L22.6781 18.4855C23.4643 17.9736 23.8232 17.0237 23.5699 16.1214ZM22.1319 17.6412L18.0474 20.2902C17.715 20.5066 17.3298 20.6121 16.9314 20.6016L11.6332 20.4406C11.0316 20.4195 10.4459 20.5857 9.93927 20.9129L6.01315 23.4591C5.87331 23.5488 5.70444 23.5673 5.54877 23.5092C5.3931 23.4512 5.277 23.3245 5.23478 23.1636L1.21631 8.78099C1.08175 8.30342 1.27172 7.79946 1.68861 7.53033L5.77304 4.88126C6.08967 4.67545 6.45378 4.56727 6.82845 4.56727C6.84956 4.56727 6.86803 4.56727 6.88914 4.56727L12.1873 4.72822C12.7889 4.75197 13.3746 4.5831 13.8786 4.25593L17.8047 1.70975C17.9445 1.62004 18.1134 1.60157 18.2691 1.65962C18.4248 1.71767 18.5409 1.84432 18.5831 2.00527L22.6015 16.3905C22.7387 16.8707 22.5488 17.372 22.1319 17.6412Z" fill="white"/>
<path d="M6.69928 7.91024C6.75996 8.13188 6.96313 8.27699 7.18213 8.27699C7.22698 8.27699 7.27184 8.27172 7.31669 8.25852C7.58318 8.18465 7.73885 7.9076 7.66498 7.64111L7.22698 6.06855C7.1531 5.80206 6.87606 5.64639 6.60957 5.72027C6.34308 5.79414 6.1874 6.07119 6.26128 6.33768L6.69928 7.91024Z" fill="white"/>
<path d="M8.43279 10.3879C8.35891 10.1214 8.08187 9.96572 7.81538 10.0396C7.54889 10.1135 7.39321 10.3905 7.46709 10.657L9.8787 19.2876C9.93939 19.5093 10.1426 19.6544 10.3616 19.6544C10.4064 19.6544 10.4513 19.6491 10.4961 19.6359C10.7626 19.562 10.9183 19.285 10.8444 19.0185L8.43279 10.3879Z" fill="white"/>
<path d="M17.2217 17.6201C17.1479 17.3536 16.8708 17.1979 16.6043 17.2718C16.3378 17.3457 16.1822 17.6227 16.256 17.8892L16.6492 19.2982C16.7099 19.5198 16.913 19.6649 17.132 19.6649C17.1769 19.6649 17.2217 19.6596 17.2666 19.6464C17.5331 19.5726 17.6888 19.2955 17.6149 19.029L17.2217 17.6201Z" fill="white"/>
<path d="M15.4881 15.1451C15.5488 15.3667 15.752 15.5118 15.971 15.5118C16.0158 15.5118 16.0607 15.5065 16.1055 15.4933C16.372 15.4195 16.5277 15.1424 16.4538 14.8759L13.9974 6.08173C13.9235 5.81524 13.6464 5.65957 13.38 5.73345C13.1135 5.80733 12.9578 6.08437 13.0317 6.35086L15.4881 15.1451Z" fill="white"/>
<path d="M15.6992 6.82059L16.504 7.27442L16.0501 8.07916C15.9129 8.31927 16 8.62534 16.2401 8.76254C16.3166 8.8074 16.4037 8.82851 16.4855 8.82851C16.6596 8.82851 16.8311 8.73616 16.9235 8.57257L17.3773 7.76782L18.1821 8.22165C18.2586 8.2665 18.3457 8.28761 18.4275 8.28761C18.6016 8.28761 18.7731 8.19526 18.8654 8.03167C19.0027 7.79157 18.9156 7.4855 18.6755 7.34829L17.8707 6.89447L18.3246 6.08972C18.4618 5.84961 18.3747 5.54355 18.1346 5.40634C17.8918 5.26914 17.5884 5.35621 17.4512 5.59632L16.9974 6.40106L16.1926 5.94724C15.9499 5.81004 15.6465 5.89711 15.5092 6.13721C15.372 6.37996 15.4591 6.68603 15.6992 6.82059Z" fill="white"/>
<path d="M6.01057 15.3377C5.74408 15.4116 5.5884 15.6886 5.66228 15.9551L5.79949 16.4459C5.86017 16.6675 6.06334 16.8126 6.28233 16.8126C6.32719 16.8126 6.37204 16.8074 6.4169 16.7942C6.68339 16.7203 6.83906 16.4432 6.76518 16.1767L6.62798 15.686C6.5541 15.4195 6.27706 15.2638 6.01057 15.3377Z" fill="white"/>
<path d="M9.24009 9.62803C9.51978 9.70983 9.78099 9.83648 10.0211 10.0027C10.1082 10.0634 10.2084 10.0924 10.3061 10.0924C10.4644 10.0924 10.62 10.0159 10.7177 9.87606C10.876 9.64914 10.8179 9.33516 10.591 9.17949C10.2638 8.95257 9.905 8.78107 9.52241 8.66761C9.25592 8.58846 8.97888 8.74149 8.89972 9.00534C8.82321 9.27183 8.97624 9.54888 9.24009 9.62803Z" fill="white"/>
<path d="M19.1556 12.2665L18.9683 11.5989C18.8944 11.3325 18.62 11.1768 18.3509 11.2507C18.0844 11.3245 17.9287 11.6016 18.0026 11.8681L18.19 12.5356C18.2163 12.628 18.2374 12.7203 18.2533 12.8127C18.2955 13.058 18.5066 13.2296 18.7467 13.2296C18.7757 13.2296 18.8021 13.2269 18.8311 13.2216C19.1029 13.1741 19.2876 12.9156 19.2401 12.6438C19.219 12.5198 19.1899 12.3905 19.1556 12.2665Z" fill="white"/>
<path d="M12.8891 14.2085C12.868 14.1505 12.8496 14.0924 12.8337 14.0317L12.6174 13.2534C12.5435 12.9869 12.2664 12.8312 11.9999 12.9051C11.7335 12.979 11.5778 13.256 11.6517 13.5225L11.868 14.3009C11.8918 14.3827 11.9155 14.4644 11.9445 14.5436C12.0184 14.7494 12.211 14.8761 12.4168 14.8761C12.4722 14.8761 12.5303 14.8655 12.5857 14.847C12.8469 14.7573 12.9841 14.4697 12.8891 14.2085Z" fill="white"/>
<path d="M11.8258 12.285C12.0923 12.2111 12.248 11.934 12.1741 11.6675L12.0528 11.2296C11.9921 11.0158 11.9156 10.8074 11.8179 10.6095C11.6966 10.3588 11.3984 10.2559 11.1477 10.3773C10.8997 10.4987 10.7942 10.7968 10.9156 11.0475C10.9868 11.1926 11.0422 11.3456 11.0871 11.5013L11.2084 11.9393C11.2691 12.161 11.4723 12.3061 11.6913 12.3061C11.7361 12.3034 11.781 12.2982 11.8258 12.285Z" fill="white"/>
<path d="M16.5779 16.8417C16.7204 16.8022 16.8628 16.752 17 16.6966C17.256 16.5911 17.3773 16.2982 17.2718 16.0423C17.1663 15.7863 16.8734 15.665 16.6174 15.7705C16.5172 15.8127 16.4143 15.847 16.3087 15.876L16.1742 15.913C16.037 15.9499 15.8971 15.9789 15.7573 15.9948C15.4829 16.0264 15.285 16.2771 15.3193 16.5515C15.3483 16.8074 15.5647 16.9948 15.8153 16.9948C15.8338 16.9948 15.8549 16.9948 15.8734 16.9921C16.0634 16.971 16.256 16.9314 16.4407 16.8787L16.5779 16.8417Z" fill="white"/>
<path d="M7.47757 8.65177C7.14776 8.74412 6.83641 8.87868 6.54618 9.05546C6.30871 9.19794 6.23483 9.50665 6.37731 9.74412C6.4723 9.89979 6.63589 9.98422 6.80739 9.98422C6.8971 9.98422 6.98681 9.96048 7.06596 9.91035C7.27705 9.78106 7.5066 9.68343 7.7467 9.61483C7.78628 9.60428 7.82586 9.59372 7.86808 9.58317C8.1372 9.52248 8.30607 9.25335 8.24538 8.98159C8.1847 8.70982 7.91557 8.54359 7.6438 8.60428C7.58839 8.62275 7.53298 8.63594 7.47757 8.65177Z" fill="white"/>
<path d="M14.3984 15.8021C14.1293 15.6886 13.8839 15.5356 13.6622 15.3456C13.4538 15.1636 13.1372 15.1847 12.9551 15.3957C12.7731 15.6068 12.7942 15.9208 13.0052 16.1029C13.306 16.3641 13.6438 16.5752 14.0105 16.7282C14.0738 16.7546 14.1398 16.7678 14.2031 16.7678C14.3984 16.7678 14.5857 16.6517 14.6649 16.4591C14.7731 16.2031 14.6543 15.9103 14.3984 15.8021Z" fill="white"/>
<path d="M18.7731 13.8787C18.5119 13.7837 18.2243 13.9209 18.1319 14.1795C18.0343 14.4539 17.8918 14.7072 17.7124 14.9367C17.5409 15.1557 17.5805 15.4697 17.7968 15.6412C17.8892 15.7125 17.9974 15.7468 18.1055 15.7468C18.2533 15.7468 18.4011 15.6808 18.5013 15.5541C18.7467 15.2402 18.9393 14.8919 19.0739 14.5172C19.1662 14.2613 19.0317 13.9737 18.7731 13.8787Z" fill="white"/>
<path d="M5.8364 14.7177C6.1029 14.6438 6.25857 14.3668 6.18469 14.1003L5.90764 13.1082C5.83377 12.8417 5.55672 12.6861 5.29023 12.7599C5.02374 12.8338 4.86807 13.1109 4.94195 13.3774L5.21899 14.3694C5.27968 14.5911 5.48284 14.7362 5.70184 14.7362C5.74669 14.7362 5.79155 14.7309 5.8364 14.7177Z" fill="white"/>
<path d="M5.22687 12.1109C5.25854 12.1161 5.2902 12.1214 5.32186 12.1214C5.55669 12.1214 5.76777 11.9552 5.81263 11.7151C5.86804 11.4301 5.9683 11.1557 6.11078 10.9024C6.24534 10.6597 6.16091 10.3563 5.91817 10.219C5.67542 10.0845 5.37199 10.1689 5.23479 10.4117C5.03954 10.7599 4.90234 11.132 4.82582 11.5225C4.77833 11.7942 4.95511 12.0581 5.22687 12.1109Z" fill="white"/>
<path d="M17.7678 9.16362C17.5013 9.2375 17.3456 9.51455 17.4195 9.78104L17.5567 10.2718C17.62 10.4934 17.8205 10.6386 18.0395 10.6386C18.0844 10.6386 18.1292 10.6333 18.1741 10.6201C18.4406 10.5462 18.5963 10.2692 18.5224 10.0027L18.3852 9.51191C18.3113 9.24542 18.0343 9.08975 17.7678 9.16362Z" fill="white"/>
</svg>
